<svg width="64" height="72" viewBox="0 0 64 72" fill="none" xmlns="http://www.w3.org/2000/svg">
<path d="M2.64331 36.1719L1.64331 34.4399C1.02451 34.7971 0.643311 35.4574 0.643311 36.1719C0.643311 36.8865 1.02451 37.5467 1.64331 37.904L2.64331 36.1719ZM62.1808 4.10735C63.1374 3.55506 63.4651 2.33188 62.9128 1.3753C62.3606 0.418713 61.1374 0.0909627 60.1808 0.643247L62.1808 4.10735ZM60.1808 71.7006C61.1374 72.2529 62.3606 71.9252 62.9128 70.9686C63.4651 70.012 63.1374 68.7888 62.1808 68.2365L60.1808 71.7006ZM3.64331 37.904L62.1808 4.10735L60.1808 0.643247L1.64331 34.4399L3.64331 37.904ZM62.1808 68.2365L3.64331 34.4399L1.64331 37.904L60.1808 71.7006L62.1808 68.2365Z" fill="#303030"/>
</svg>
