<svg width="22" height="12" viewBox="0 0 22 12" fill="none" xmlns="http://www.w3.org/2000/svg">
<path d="M21.978 3.505V2.711L21.808 2.596H19.123C18.8532 2.16847 18.5265 1.77958 18.152 1.44C17.1306 0.512212 15.7999 -0.00125143 14.42 2.2905e-06H11.198L10.992 0.122002L10.786 2.2905e-06H7.564C6.18413 -0.00125143 4.8534 0.512212 3.832 1.44C3.45747 1.77958 3.13081 2.16847 2.861 2.596H0.172L0.00199997 2.711V3.505L0.078 3.456V4.686H0.00199997V5.343H4.147C5.163 5.343 5.673 5.343 5.97 4.796C6.10292 4.54017 6.29873 4.32234 6.539 4.163C6.58098 4.1336 6.62927 4.11445 6.67999 4.10708C6.73071 4.09971 6.78245 4.10433 6.83106 4.12056C6.87968 4.1368 6.92381 4.1642 6.95992 4.20057C6.99603 4.23695 7.02311 4.28127 7.039 4.33C7.10589 4.54466 7.09274 4.77629 7.002 4.982C6.87402 5.25202 6.67541 5.4824 6.42719 5.64875C6.17897 5.81511 5.89039 5.91125 5.592 5.927H0.00199997V6.584H5.589C6.0185 6.5687 6.43513 6.43336 6.79163 6.19334C7.14813 5.95331 7.43025 5.6182 7.606 5.226C7.61005 5.21437 7.61842 5.20475 7.62937 5.19912C7.64033 5.19348 7.65303 5.19228 7.66484 5.19574C7.67666 5.19921 7.68669 5.20709 7.69286 5.21775C7.69903 5.22841 7.70087 5.24103 7.698 5.253C7.67349 5.39147 7.63323 5.52668 7.578 5.656C7.41049 6.04047 7.13104 6.36556 6.77607 6.58888C6.42111 6.81221 6.00709 6.92342 5.588 6.908H0.000999987V7.294H5.588C6.08358 7.31068 6.57269 7.17762 6.99153 6.91219C7.41037 6.64676 7.7395 6.26127 7.936 5.806C7.97181 5.71999 8.0022 5.63181 8.027 5.542C8.03438 5.51438 8.05154 5.49037 8.0753 5.47445C8.09905 5.45852 8.12777 5.45177 8.15613 5.45544C8.18449 5.4591 8.21056 5.47294 8.22948 5.49438C8.2484 5.51582 8.25889 5.54341 8.259 5.572V5.581C8.25695 5.89623 8.18151 6.20666 8.03865 6.48767C7.8958 6.76869 7.68947 7.01257 7.436 7.2C6.71742 7.70106 5.85298 7.9497 4.978 7.907H0V8.564H2.89C3.36926 9.30463 4.01688 9.92142 4.78 10.364C5.62589 10.8532 6.58586 11.1105 7.563 11.11H14.422C15.3991 11.1105 16.3591 10.8532 17.205 10.364C17.9681 9.92142 18.6157 9.30463 19.095 8.564H21.984V7.907H17.001C16.1276 7.94829 15.2651 7.69935 14.548 7.199C14.2945 7.01157 14.0882 6.76769 13.9453 6.48667C13.8025 6.20566 13.7271 5.89524 13.725 5.58V5.571C13.7251 5.54241 13.7356 5.51482 13.7545 5.49338C13.7734 5.47194 13.7995 5.4581 13.8279 5.45444C13.8562 5.45077 13.885 5.45752 13.9087 5.47345C13.9325 5.48937 13.9496 5.51338 13.957 5.541C13.9818 5.63081 14.0122 5.71899 14.048 5.805C14.2443 6.26046 14.5734 6.64616 14.9923 6.91178C15.4111 7.17739 15.9003 7.3106 16.396 7.294H21.983V6.908H16.396C15.9767 6.92362 15.5625 6.81251 15.2073 6.58917C14.8522 6.36583 14.5726 6.04064 14.405 5.656C14.35 5.52504 14.3104 5.38812 14.287 5.248C14.2854 5.23662 14.288 5.22506 14.2942 5.2154C14.3004 5.20574 14.3099 5.19863 14.3209 5.19536C14.3319 5.1921 14.3437 5.19289 14.3542 5.19759C14.3647 5.2023 14.3731 5.2106 14.378 5.221C14.5541 5.61249 14.8363 5.94688 15.1925 6.18634C15.5488 6.42581 15.965 6.56078 16.394 6.576H21.978V5.919H16.394C16.0956 5.90325 15.807 5.80711 15.5588 5.64076C15.3106 5.4744 15.112 5.24402 14.984 4.974C14.8933 4.76829 14.8801 4.53666 14.947 4.322C14.9629 4.27327 14.99 4.22895 15.0261 4.19257C15.0622 4.1562 15.1063 4.1288 15.1549 4.11256C15.2035 4.09633 15.2553 4.09171 15.306 4.09908C15.3567 4.10645 15.405 4.1256 15.447 4.155C15.6873 4.31434 15.8831 4.53217 16.016 4.788C16.316 5.335 16.823 5.335 17.839 5.335H21.978V4.678H21.9V3.456L21.978 3.505ZM10.878 0.825002L10.978 0.883002H10.994L11.094 0.825002V3.033L10.994 2.971H10.978L10.878 3.033V0.825002ZM10.778 3.872L10.978 3.745L11.178 3.872H13.678C13.2709 4.348 13.0472 4.95368 13.047 5.58C13.0452 6.19587 13.2608 6.79261 13.656 7.265H8.298C8.69316 6.79261 8.90884 6.19587 8.907 5.58C8.90739 4.95394 8.68435 4.34828 8.278 3.872H10.778ZM0.456 4.682V4.639H2.073L2.066 4.682H0.456ZM2.151 4.256H0.456V4.144H2.178C2.168 4.181 2.159 4.219 2.15 4.256H2.151ZM2.397 3.487H0.456V3.256H2.496C2.46133 3.33 2.42833 3.40567 2.397 3.483V3.487ZM2.752 4.578C2.95988 3.55545 3.48933 2.62619 4.263 1.926C5.16373 1.10787 6.33718 0.655036 7.554 0.656001H9.861C10.414 0.656001 10.492 1.395 10.492 1.395H7.605C5.124 1.395 3.398 2.59 2.84 4.681C2.82677 4.68095 2.81372 4.67798 2.80177 4.6723C2.78982 4.66663 2.77927 4.65839 2.77087 4.64817C2.76247 4.63795 2.75642 4.62601 2.75316 4.61319C2.7499 4.60037 2.7495 4.58699 2.752 4.574V4.578ZM3.744 4.533C3.72671 4.57762 3.69638 4.61599 3.65695 4.6431C3.61753 4.67022 3.57085 4.68482 3.523 4.685C3.74477 3.91754 4.22484 3.25024 4.882 2.796C5.69508 2.28138 6.64429 2.02352 7.606 2.056H10.493V2.321H7.553C6.88067 2.31029 6.21286 2.43264 5.588 2.681C5.169 2.84508 4.78879 3.09469 4.47164 3.41391C4.15449 3.73312 3.90735 4.11494 3.746 4.535L3.744 4.533ZM7.468 3.215C7.36365 3.21518 7.25943 3.2222 7.156 3.236C6.046 3.371 5.256 4.121 4.984 3.917C4.833 3.802 5.184 3.317 5.648 3.073C6.25075 2.81993 6.89935 2.69429 7.553 2.704H10.493C10.4715 2.84971 10.3971 2.9824 10.2841 3.07682C10.171 3.17123 10.0272 3.22077 9.88 3.216H7.468V3.215ZM17.524 8.756C17.5661 8.69746 17.6215 8.64979 17.6857 8.61692C17.7498 8.58406 17.8209 8.56694 17.893 8.567C17.9278 8.56698 17.9618 8.57708 17.9909 8.59607C18.02 8.61505 18.0429 8.6421 18.0569 8.67391C18.0709 8.70572 18.0754 8.74092 18.0697 8.77521C18.064 8.8095 18.0485 8.84139 18.025 8.867C17.6876 9.23538 17.2961 9.55031 16.864 9.801C16.1181 10.2323 15.2716 10.4592 14.41 10.459H7.551C6.68953 10.4585 5.84343 10.2308 5.098 9.799C4.6659 9.54831 4.27442 9.23338 3.937 8.865C3.91351 8.83939 3.89798 8.80749 3.89231 8.77321C3.88664 8.73892 3.89107 8.70372 3.90507 8.67191C3.91906 8.6401 3.94202 8.61305 3.97113 8.59407C4.00024 8.57508 4.03425 8.56498 4.069 8.565C4.14109 8.56494 4.21217 8.58206 4.27633 8.61492C4.3405 8.64779 4.39592 8.69546 4.438 8.754C4.78317 9.21787 5.23772 9.58917 5.76114 9.83483C6.28456 10.0805 6.86062 10.1929 7.438 10.162H14.513C15.0904 10.1929 15.6664 10.0805 16.1899 9.83483C16.7133 9.58917 17.1678 9.21787 17.513 8.754L17.524 8.756ZM16.611 8.65C16.6377 8.62191 16.67 8.59974 16.7059 8.58492C16.7417 8.57011 16.7802 8.56298 16.819 8.564H16.991C17.0087 8.56401 17.0261 8.56909 17.041 8.57863C17.0559 8.58817 17.0678 8.60178 17.0753 8.61785C17.0828 8.63393 17.0855 8.6518 17.0831 8.66937C17.0808 8.68693 17.0734 8.70346 17.062 8.717C16.7442 9.07218 16.3507 9.35153 15.9106 9.53446C15.4705 9.71739 14.9949 9.79925 14.519 9.774H7.444C6.96813 9.79937 6.49263 9.71767 6.05253 9.53491C5.61242 9.35216 5.21892 9.073 4.901 8.718C4.88957 8.70446 4.88224 8.68793 4.87988 8.67037C4.87753 8.6528 4.88024 8.63493 4.8877 8.61885C4.89516 8.60278 4.90706 8.58917 4.92199 8.57963C4.93693 8.57009 4.95428 8.56501 4.972 8.565H5.144C5.18276 8.56398 5.2213 8.57111 5.25713 8.58592C5.29296 8.60074 5.32528 8.62291 5.352 8.651C5.58965 8.92749 5.88686 9.14652 6.2213 9.29167C6.55575 9.43681 6.91874 9.50427 7.283 9.489H14.683C15.0473 9.50427 15.4102 9.43681 15.7447 9.29167C16.0791 9.14652 16.3764 8.92749 16.614 8.651L16.611 8.65ZM14.278 7.922C14.3769 7.92234 14.474 7.94817 14.56 7.997C14.6863 8.06805 14.8165 8.13182 14.95 8.188C15.0191 8.21673 15.0764 8.26802 15.1126 8.33349C15.1487 8.39896 15.1617 8.47476 15.1493 8.54853C15.1369 8.6223 15.0998 8.68969 15.0442 8.73972C14.9886 8.78974 14.9177 8.81945 14.843 8.824C14.7923 8.824 14.7393 8.824 14.684 8.824H7.284C7.22867 8.824 7.17567 8.824 7.125 8.824C7.05033 8.81945 6.9794 8.78974 6.92378 8.73972C6.86816 8.68969 6.83113 8.6223 6.81872 8.54853C6.80631 8.47476 6.81925 8.39896 6.85544 8.33349C6.89163 8.26802 6.94893 8.21673 7.018 8.188C7.15153 8.13182 7.28175 8.06805 7.408 7.997C7.49399 7.94817 7.59111 7.92234 7.69 7.922H14.278ZM16.978 3.917C16.709 4.117 15.916 3.371 14.806 3.236C14.7026 3.22218 14.5983 3.21516 14.494 3.215H12.086C11.9396 3.21853 11.797 3.16843 11.6851 3.07412C11.5731 2.97982 11.4994 2.84783 11.478 2.703H14.418C15.0717 2.69329 15.7202 2.81892 16.323 3.072C16.782 3.32 17.138 3.802 16.987 3.916L16.978 3.917ZM18.216 4.53C18.0551 4.1103 17.8086 3.72869 17.4922 3.40949C17.1757 3.09029 16.7963 2.84049 16.378 2.676C15.7532 2.42748 15.0853 2.30513 14.413 2.316H11.478V2.056H14.365C15.3261 2.02422 16.2746 2.28242 17.087 2.797C17.7442 3.25124 18.2242 3.91854 18.446 4.686C18.397 4.68633 18.3491 4.67152 18.3088 4.6436C18.2686 4.61567 18.2379 4.576 18.221 4.53H18.216ZM19.116 4.682C18.558 2.59 16.833 1.396 14.351 1.396H11.478C11.478 1.396 11.556 0.657002 12.109 0.657002H14.417C15.6337 0.655763 16.8071 1.10824 17.708 1.926C18.4811 2.6254 19.0105 3.55353 19.219 4.575C19.2215 4.58799 19.2211 4.60137 19.2178 4.61419C19.2146 4.62701 19.2085 4.63895 19.2001 4.64917C19.1917 4.65939 19.1812 4.66763 19.1692 4.6733C19.1573 4.67897 19.1442 4.68195 19.131 4.682H19.116ZM21.501 4.682H19.891L19.884 4.639H21.501V4.682ZM21.501 4.253H19.801C19.792 4.216 19.783 4.178 19.773 4.141H21.497L21.501 4.253ZM21.501 3.484H19.568C19.5367 3.406 19.5033 3.329 19.468 3.253H21.508L21.501 3.484Z" fill="#256EFF"/>
</svg>
