<svg xmlns="http://www.w3.org/2000/svg" width="25" height="25" viewBox="0 0 25 25"><g transform="translate(-1000 -3555)"><rect width="25" height="25" transform="translate(1000 3555)" fill="none"/><path d="M22.5-11.751v-.794l-.17-.115H19.645a5.581,5.581,0,0,0-.971-1.156,5.543,5.543,0,0,0-3.732-1.44H11.72l-.206.122h0l-.206-.122H8.086a5.543,5.543,0,0,0-3.732,1.44,5.581,5.581,0,0,0-.971,1.156H.694l-.17.115v.794L.6-11.8v1.23H.524v.657H4.669c1.016,0,1.526,0,1.823-.547l0,0a1.7,1.7,0,0,1,.569-.633.328.328,0,0,1,.5.167.93.93,0,0,1-.037.652,1.657,1.657,0,0,1-1.41.945H.524v.657H6.111A2.3,2.3,0,0,0,8.128-10.03v0a.048.048,0,0,1,.092.027A1.845,1.845,0,0,1,8.1-9.6,2.087,2.087,0,0,1,6.11-8.348H.523v.386H6.11A2.467,2.467,0,0,0,8.458-9.45a2.234,2.234,0,0,0,.091-.264.118.118,0,0,1,.232.03v.009a2.03,2.03,0,0,1-.823,1.619A3.96,3.96,0,0,1,5.5-7.349H.522v.657H3.412a5.594,5.594,0,0,0,1.89,1.8,5.554,5.554,0,0,0,2.783.746h6.859a5.554,5.554,0,0,0,2.783-.746,5.594,5.594,0,0,0,1.89-1.8h2.889v-.657H17.523a3.96,3.96,0,0,1-2.453-.708,2.03,2.03,0,0,1-.823-1.619v-.009a.118.118,0,0,1,.232-.03,2.234,2.234,0,0,0,.091.264,2.467,2.467,0,0,0,2.348,1.489h5.587v-.386H16.918A2.087,2.087,0,0,1,14.927-9.6a1.832,1.832,0,0,1-.118-.408.048.048,0,0,1,.091-.027v0A2.3,2.3,0,0,0,16.916-8.68H22.5v-.657H16.916a1.657,1.657,0,0,1-1.41-.945.93.93,0,0,1-.037-.652.328.328,0,0,1,.5-.167,1.7,1.7,0,0,1,.569.633v0c.3.547.807.547,1.823.547H22.5v-.657h-.078V-11.8Zm-11.1-2.68.1.058.008,0,.008,0,.1-.058v2.208l-.1-.062-.008,0-.008,0-.1.062Zm-.1,3.047.2-.127h0l.2.127h2.5a2.629,2.629,0,0,0-.631,1.708,2.614,2.614,0,0,0,.609,1.685H8.82a2.614,2.614,0,0,0,.609-1.685A2.629,2.629,0,0,0,8.8-11.384Zm-8.719.81H.978v-.043H2.595l-.007.043ZM2.673-11H.978v-.112H2.7c-.01.037-.019.075-.028.112Zm.246-.769H.978V-12h2.04Q2.966-11.889,2.919-11.773Zm.355,1.091A4.891,4.891,0,0,1,4.785-13.33,4.889,4.889,0,0,1,8.076-14.6h2.307c.553,0,.631.739.631.739H8.127c-2.481,0-4.207,1.195-4.765,3.286a.09.09,0,0,1-.088-.107Zm.992-.045a.238.238,0,0,1-.221.152,3.466,3.466,0,0,1,1.359-1.889A4.791,4.791,0,0,1,8.128-13.2h2.887v.265H8.075a5.1,5.1,0,0,0-1.965.36,3.238,3.238,0,0,0-1.842,1.854ZM7.99-12.041a2.389,2.389,0,0,0-.312.021c-1.11.135-1.9.885-2.172.681-.151-.115.2-.6.664-.844a4.739,4.739,0,0,1,1.905-.369h2.94a.6.6,0,0,1-.613.512H7.99ZM18.046-6.5a.454.454,0,0,1,.369-.189.179.179,0,0,1,.132.3,4.928,4.928,0,0,1-1.161.934,4.9,4.9,0,0,1-2.454.658H8.073A4.9,4.9,0,0,1,5.62-5.457a4.928,4.928,0,0,1-1.161-.934.179.179,0,0,1,.132-.3h0a.454.454,0,0,1,.369.189,3.506,3.506,0,0,0,3,1.408h7.075a3.506,3.506,0,0,0,3-1.408Zm-.913-.106a.277.277,0,0,1,.208-.086l.172,0a.093.093,0,0,1,.071.153,3.186,3.186,0,0,1-2.543,1.057H7.966A3.186,3.186,0,0,1,5.423-6.538a.093.093,0,0,1,.071-.153l.172,0a.277.277,0,0,1,.208.086,2.413,2.413,0,0,0,1.931.838h7.4a2.413,2.413,0,0,0,1.931-.838ZM14.8-7.334a.575.575,0,0,1,.282.075,3.8,3.8,0,0,0,.39.191.331.331,0,0,1-.107.636q-.076,0-.159,0h-7.4q-.083,0-.159,0a.331.331,0,0,1-.107-.636,3.8,3.8,0,0,0,.39-.191.575.575,0,0,1,.282-.075H14.8ZM17.5-11.339c-.269.2-1.062-.546-2.172-.681a2.382,2.382,0,0,0-.312-.021H12.608A.6.6,0,0,1,12-12.553h2.94a4.739,4.739,0,0,1,1.905.369c.459.248.815.73.664.844Zm1.238.613A3.237,3.237,0,0,0,16.9-12.58a5.094,5.094,0,0,0-1.965-.36H12V-13.2h2.887a4.791,4.791,0,0,1,2.722.741,3.466,3.466,0,0,1,1.359,1.889A.238.238,0,0,1,18.743-10.726Zm.9.152c-.558-2.092-2.283-3.286-4.765-3.286H12s.078-.739.631-.739h2.308a4.889,4.889,0,0,1,3.291,1.269,4.891,4.891,0,0,1,1.511,2.649.09.09,0,0,1-.088.107Zm2.385,0h-1.61l-.007-.043h1.617Zm0-.429h-1.7c-.009-.037-.018-.075-.028-.112h1.724Zm0-.769H20.09q-.047-.117-.1-.231h2.04Z" transform="translate(1000.986 3577.256)" fill="#303030"/></g></svg>