<svg xmlns="http://www.w3.org/2000/svg" width="21.126" height="25" viewBox="0 0 21.126 25"><path d="M21.126,1.371V25H1.407v-.34H1.125v-.343H.564v-.343H.282v-.343H0V0H1.971V.346h.295v.34h.282v.343H2.83V0H4.784V.343h.282V.686h.279v.343h.282V0H7.6V.343H7.88V.686h.282v.343h.564v.343h.287V2.755h3.1V0h1.974V.343h.279V.686h.282v.343h.282V0H16.9V.343h.282V.686h.282v.343h.282V0h1.971V.343H20V.686h.282v.343h.279v.34ZM2.266,1.029H1.692V.686H1.13v.343H1.41v.343h.856Zm18.3,1.025h-.843v2.4H17.747v-2.4H16.9v2.4H14.93v-2.4h-.846v2.4H8.452v-2.4H7.606v2.4H5.635v-2.4H4.784v2.4H2.817v-2.4H1.692v22.26H8.17V19.521h.282V17.467h.282V16.438h.279V15.413H9.3V15.07h.272v-.343h.282v-.34h.282v-.346h.561V13.7h1.141v.34H12.4v.346h.282v.343h.279v.343h.282v.686h.279v.68H13.8v1.371h.282V20.2h.282v4.114h6.2ZM4.784,1.029V.686H3.945v.343h.282v.343h.846V1.029Zm1.123,8.9h.282v1.7H4.225V9.918H4.5V8.571h.279V7.876h.282V7.533h.282v.343H5.63v.695h.282Zm1.7-8.9V.686H6.763v.343H7.05v.343h.843V1.029Zm6.2,0V.686h-.561v.343h.282v.343h.561V1.029Zm3.381,0h-.566V.686h-.559v.343h.279v.343h.846Zm.841,9.245h.282v1.359H16.335V9.587h.282V8.219H16.9V7.876h.282V7.533h.279v.343h.282v.695h.282ZM20,1.029h-.564V.686h-.554v.343h.282v.343h.846Z"/></svg>