<svg xmlns="http://www.w3.org/2000/svg" width="21.126" height="25" viewBox="0 0 21.126 25"><path d="M14.7,24.986,14.4,24.3c-.024-.055-.058-.128-.089-.187l-.174.107c-.11.07-.229.141-.306.187a.53.53,0,0,1-.306.07,2.723,2.723,0,0,1-1.137-.245,1.507,1.507,0,0,0-.153-.06A1.561,1.561,0,0,1,12,24.075a2.926,2.926,0,0,1-.828-.607.59.59,0,0,1-.116-.174l-.095-.234c-.1-.26-.214-.521-.306-.8a1.036,1.036,0,0,1,.079-.68,1.69,1.69,0,0,0,.058-.2l.015-.057a.926.926,0,0,1,.284-.427c.067-.062.128-.125.193-.187a4.367,4.367,0,0,1,.526-.469,6.066,6.066,0,0,1,.847-.479l.037-.016a3.633,3.633,0,0,1,1.819-.284,4.057,4.057,0,0,1,.48.06c.11.016.22.034.327.044a1.466,1.466,0,0,1,.455.1.638.638,0,0,1,.076-.362,1.8,1.8,0,0,1,.691-.482l.1-.049.141-.073c.348-.214.844-.474,1.14-.214.134.1,0,.31,0,.312a.725.725,0,0,1-.428.284c-.083.021-.165.047-.248.07l-.128.036a.682.682,0,0,0-.517.565.3.3,0,0,0,.071.28.426.426,0,0,0,.3.137,2.564,2.564,0,0,1,.443.138c.052.018.1.039.159.055a6.088,6.088,0,0,1,1.064.466,3.338,3.338,0,0,1,.7.573,2.392,2.392,0,0,1,.6.974.65.65,0,0,1,0,.409,2.106,2.106,0,0,1-.4.734,1.692,1.692,0,0,1-.633.393l-.055.023c-.5.216-1.006.427-1.507.635a1.627,1.627,0,0,1-.306.094,4.45,4.45,0,0,1-1.431.117,2.7,2.7,0,0,1-.471-.107l-.19-.049-.156-.042-.067-.023ZM14.4,23.549l.306.643c.028.057.076.089.186.122l.141.036.2.055a2.888,2.888,0,0,0,.413.1,4.049,4.049,0,0,0,1.308-.115,1.5,1.5,0,0,0,.251-.07l.122-.052a3.97,3.97,0,0,1-1.223.2h0a2.515,2.515,0,0,1-1.042-.26.47.47,0,0,1-.2-.216.57.57,0,0,0-.043-.07c-.028-.036-.052-.076-.076-.112a1.026,1.026,0,0,0-.159-.2.233.233,0,0,0-.174-.055Zm-2.069-3.312a3.4,3.4,0,0,0-.306.2,4.292,4.292,0,0,0-.489.437c-.064.065-.131.13-.2.193a.662.662,0,0,0-.208.3v.055a2.139,2.139,0,0,1-.064.229.836.836,0,0,0-.079.521c.089.26.2.521.306.781l.095.234a.3.3,0,0,0,.064.094,2.652,2.652,0,0,0,.743.542,1.274,1.274,0,0,0,.177.07c.064.023.128.047.19.076a2.341,2.341,0,0,0,.984.208.229.229,0,0,0,.116-.026l.122-.07a.866.866,0,0,1-.565-.018,4.263,4.263,0,0,1-1.3-.635,1.14,1.14,0,0,1-.394-.5V22.89a3.961,3.961,0,0,0-.217-.469,1.009,1.009,0,0,1-.043-.909.365.365,0,0,0,.024-.094.143.143,0,0,1,.015-.078.876.876,0,0,1,.306-.5c.092-.073.174-.151.257-.227a3.758,3.758,0,0,1,.413-.344Zm2.445,3.125.046.036a1.373,1.373,0,0,1,.2.26c.021.034.043.068.067.1a.547.547,0,0,1,.061.1.343.343,0,0,0,.064.091,2.211,2.211,0,0,0,.886.227h0a4.286,4.286,0,0,0,1.73-.427l.434-.182.336-.141a1.872,1.872,0,0,0,.235-.109.387.387,0,0,0,.147-.211c.018-.044.04-.089.061-.13a.542.542,0,0,0-.034-.612,6.818,6.818,0,0,0-.553-.69,1.482,1.482,0,0,0-.4-.3c-.306-.154-.611-.284-.917-.411a3.4,3.4,0,0,0-.55-.193h-.061a.151.151,0,0,1,0,.036.524.524,0,0,1-.278.276.8.8,0,0,0-.431.521q-.055.143-.119.289a3.722,3.722,0,0,0-.153.4c-.018.062-.037.125-.049.187a1.056,1.056,0,0,1,.306-.344h0a.627.627,0,0,1,.29-.089.739.739,0,0,1,.715.583.353.353,0,0,1-.076.219.856.856,0,0,1-1.128.094.534.534,0,0,1-.156-.237h0a1.181,1.181,0,0,1-.046.245.311.311,0,0,1-.122.219,1.6,1.6,0,0,1-.352.182.311.311,0,0,1-.162.021Zm-.41.177a.3.3,0,0,0-.186.076.709.709,0,0,1-.177.331c.223-.135.306-.174.373-.161ZM13.9,20.057h-.079a2.408,2.408,0,0,0-1.333.432,3.076,3.076,0,0,0-.376.331c-.092.081-.18.164-.275.24a.624.624,0,0,0-.22.341c0,.018,0,.039,0,.06a.5.5,0,0,1-.04.151.771.771,0,0,0,.04.7,4.834,4.834,0,0,1,.2.521v.034a.884.884,0,0,0,.306.372,3.848,3.848,0,0,0,1.186.578.46.46,0,0,0,.342,0,.367.367,0,0,0,.2-.26.29.29,0,0,1,.076-.13.662.662,0,0,1,.452-.174.892.892,0,0,1,.226.034.239.239,0,0,1-.07-.161,1.429,1.429,0,0,1,0-.2v-.044a1.846,1.846,0,0,1,.067-.312c.04-.135.092-.26.141-.4l.095-.26a1.341,1.341,0,0,0,.064-.174,1.427,1.427,0,0,1,.446-.781,2.415,2.415,0,0,1,.382-.279,2.13,2.13,0,0,1-.232-.031h-.061l-.061-.055a.227.227,0,0,1-.031-.216.329.329,0,0,0,0-.1c-.073-.036-.177-.076-.254-.107a.707.707,0,0,1-.1-.036,1.29,1.29,0,0,0-.226-.029l-.29-.018C14.311,20.073,14.1,20.057,13.9,20.057Zm2.14.174a.248.248,0,0,1,.177.083,1.015,1.015,0,0,0,.462.177,3.516,3.516,0,0,1,.636.219,9.576,9.576,0,0,1,.917.422,1.8,1.8,0,0,1,.489.365,6.623,6.623,0,0,1,.578.721.782.782,0,0,1,.052.875.722.722,0,0,0-.052.107.794.794,0,0,1-.141.242.722.722,0,0,0,.119-.107,1.867,1.867,0,0,0,.348-.643.446.446,0,0,0,0-.26,2.162,2.162,0,0,0-.529-.864,2.959,2.959,0,0,0-.63-.521,5.919,5.919,0,0,0-1.018-.44l-.156-.047a2.653,2.653,0,0,0-.388-.117.761.761,0,0,1-.484-.253.554.554,0,0,1-.127-.471.927.927,0,0,1,.455-.674l-.031.016a1.535,1.535,0,0,0-.572.383,1.07,1.07,0,0,0-.04.336c0,.112,0,.169-.07.216-.083.089-.235,0-.348-.065a1.036,1.036,0,0,0-.4-.1,2.276,2.276,0,0,1-.352-.049,4.388,4.388,0,0,0-.437-.055,3.321,3.321,0,0,0-1.62.24,2.805,2.805,0,0,1,.938-.182q.367,0,.734.029l.284.021a1.511,1.511,0,0,1,.342.052l.107.042a2.324,2.324,0,0,1,.306.138.306.306,0,0,1,.119.346.607.607,0,0,0,.1,0,.057.057,0,0,1,.015-.036l.061-.083.046-.055h.113Zm-.235.8-.174.141a1.165,1.165,0,0,0-.361.646,1.5,1.5,0,0,1-.073.2l-.095.26c-.046.125-.095.26-.138.383a2.074,2.074,0,0,0-.058.279v.044a.347.347,0,0,0,0,.1,1.164,1.164,0,0,0,.2-.117c-.018,0,0-.023,0-.042.018-.081.031-.159.046-.24a3.849,3.849,0,0,1,.107-.471,4.527,4.527,0,0,1,.162-.424c.04-.091.079-.182.116-.276a1.183,1.183,0,0,1,.248-.482Zm.2,1.3a.81.81,0,0,0-.238.312.215.215,0,0,0,.079.115.414.414,0,0,0,.306.078.445.445,0,0,0,.306-.135.135.135,0,0,0,.021-.052.438.438,0,0,0-.391-.333h0a.308.308,0,0,0-.089.036Zm.318-1.51Zm-.269-.26Zm-.468-.172Zm2.048-1.734a2.1,2.1,0,0,0-.672.26l-.073.039a1.085,1.085,0,0,1,.131-.044l.125-.039L17.4,18.8a.407.407,0,0,0,.238-.146Zm-10.17,5.9a2.43,2.43,0,0,1-.269-.018c-.156-.018-.306-.049-.462-.081s-.306-.062-.477-.081c-.379-.039-.767-.057-1.143-.073H5.022c-.275,0-.553-.016-.828,0a2.4,2.4,0,0,0-.4.057c-.089.018-.385.031-.5-.107a.315.315,0,0,1-.07-.229.53.53,0,0,1,.024-.193,1.115,1.115,0,0,0,.028-.279c-.046-.552-.089-1.01-.168-1.482a2.228,2.228,0,0,0-.269-.654,2.611,2.611,0,0,0-.556-.781l-.116-.1c-.141-.125-.284-.26-.422-.38A3.979,3.979,0,0,1,.73,18.812a9.488,9.488,0,0,1-.4-1.1c-.073-.26-.125-.521-.177-.781-.034-.167-.07-.336-.11-.5a2.889,2.889,0,0,1-.028-.9v-.206a3.014,3.014,0,0,1,.394-1.247l.1-.19a4.858,4.858,0,0,1,.306-.521c.116-.164.245-.357.376-.547l.141-.193c.046-.065.1-.133.147-.2.092-.122.183-.242.266-.367a1.251,1.251,0,0,0,.1-.2l.073-.154a3.056,3.056,0,0,0,.348-1.094c.024-.237.037-.458.046-.685v-.3a.992.992,0,0,1,0-.167A3.373,3.373,0,0,0,2.35,8.34.256.256,0,0,1,2.4,8.111a.351.351,0,0,1,.229-.127.383.383,0,0,1,.268.008.3.3,0,0,1,.173.174,2.3,2.3,0,0,1,.089.289V8.5a2.659,2.659,0,0,1-.061.984c-.021.122-.04.221-.043.281s0,.172,0,.26a3.475,3.475,0,0,1-.021.471,3.856,3.856,0,0,1-.437,1.489A10.677,10.677,0,0,1,1.8,13.23a7.191,7.191,0,0,0-.517.87l-.037.065a5.6,5.6,0,0,0-.324.713,2.37,2.37,0,0,0-.113.552,3.268,3.268,0,0,0-.018.648c.028.26.076.56.153.94v.047a6.633,6.633,0,0,0,.226.875l.034.089a4.273,4.273,0,0,0,.584,1.2,5.48,5.48,0,0,0,.44.487l.052.052a5.986,5.986,0,0,0,.532.5,2.161,2.161,0,0,1,.52.549l.04.062a3.123,3.123,0,0,1,.541,1.271v.078c.018.169.037.336.058.505A2.049,2.049,0,0,0,4,22.971c.018.13.04.26.049.4a2.545,2.545,0,0,1,0,.307h0q.134-.006.269,0h.569a.374.374,0,0,1-.144-.193c-.058-.161-.116-.318-.174-.474-.1-.26-.193-.521-.275-.781a4.609,4.609,0,0,1-.15-1.182,2,2,0,0,0-.021-.357,2.539,2.539,0,0,1-.024-.333,1.517,1.517,0,0,1,.031-.315c.083-.445.168-.893.257-1.338.021-.107.049-.211.073-.315s.058-.234.083-.352.043-.26.061-.4.028-.2.043-.294l.028-.172c.043-.26.086-.521.144-.781.073-.318.165-.656.278-1.042a3.634,3.634,0,0,1,.141-.38c.052-.12.073-.182.1-.26.07-.208.134-.417.2-.625l.073-.289c.073-.234.147-.466.211-.7.034-.128.061-.26.086-.383l.079-.388c.049-.232.1-.463.15-.7.031-.135.107-.4.162-.6.034-.122.061-.219.067-.245v-.06a4.22,4.22,0,0,0,.07-.474,2.406,2.406,0,0,1,.431-.9,1.591,1.591,0,0,0,.107-.164,7.205,7.205,0,0,1,.514-.685l.208-.26a.808.808,0,0,1,.052-.076L7.281,8.1c-.666-.086-2.785-.19-3.472-.219A5.1,5.1,0,0,1,2.561,7.85c-.131-.026-.278-.31-.241-.482a.257.257,0,0,1,.124-.177.348.348,0,0,1,.236-.044,6.985,6.985,0,0,1,.81.107c.174.034.792.055,1.287.073.44.013.822.026.954.047s.358.031.572.044.339.021.413.029.156.013.235.016a1.673,1.673,0,0,1,.306.023c.278.034.55.078.825.125a.355.355,0,0,0,.095.013.094.094,0,0,1,.031-.065A2.987,2.987,0,0,1,8.6,7.171a4.044,4.044,0,0,1,.324-.245,2.461,2.461,0,0,0,.611-.544,2.387,2.387,0,0,1,.33-.365l.306-.289c.248-.247.5-.495.755-.734a6.891,6.891,0,0,1,.81-.669,5.817,5.817,0,0,1,.917-.5,1.974,1.974,0,0,1,1.042-.089.8.8,0,0,0,.11,0,.269.269,0,0,1,.23.061.184.184,0,0,1,.054.2.387.387,0,0,1-.339.318.8.8,0,0,1-.407,0,.6.6,0,0,0-.449.021,4.282,4.282,0,0,0-1.067.677c-.376.349-.746.719-1.091,1.065-.11.109-.217.224-.321.338-.144.156-.287.31-.44.458a4.8,4.8,0,0,1-.391.323l-.2.154c-.15.125-.306.247-.446.378l.116.018a.438.438,0,0,1,.275.125.29.29,0,0,1,.037.26c-.021.083-.046.167-.07.26-.046.159-.092.315-.125.476a.875.875,0,0,0,0,.2,1.238,1.238,0,0,1,0,.214c-.055.37-.2,1.419-.193,1.588V11a2.248,2.248,0,0,0,.052.6,4.166,4.166,0,0,0,.287.7l.064.13a.825.825,0,0,0,.162.2c.119.125.217.221.306.318.177.177.361.359.523.549l.107.122a3.72,3.72,0,0,1,.636.9.488.488,0,0,1,.037.112.222.222,0,0,0,.034.094,1.474,1.474,0,0,1,.19.547,3.36,3.36,0,0,0,.055.424c.055.411.113.836.128,1.258a2.917,2.917,0,0,1-.131.828l-.04.164a5.07,5.07,0,0,1-.413,1.013c-.089.174-.174.352-.248.521a4.569,4.569,0,0,1-.761,1.2l-.086.109a1.234,1.234,0,0,1-.443.4,1.945,1.945,0,0,0-.489.375l-.131.125a.7.7,0,0,0-.266.659c.052.289.1.578.15.867l.07.424a.206.206,0,0,0,.015.039.325.325,0,0,1-.113.4c-.058.055-.116.107-.177.156a1.6,1.6,0,0,1-1.027.333Zm-2.971-.549c.183,0,.364,0,.544.013h.092c.382.018.779.034,1.168.076.174.021.345.055.514.086q.213.047.431.076a1.283,1.283,0,0,0,1.009-.245,1.75,1.75,0,0,0,.153-.135c.073-.07.073-.07.058-.107a.363.363,0,0,1-.034-.1l-.073-.43-.141-.857a.949.949,0,0,1,.342-.9l.125-.117a2.181,2.181,0,0,1,.575-.432.993.993,0,0,0,.33-.315A1.342,1.342,0,0,1,9.68,20.5a4.461,4.461,0,0,0,.718-1.127c.073-.185.165-.362.254-.542a4.781,4.781,0,0,0,.391-.963l.049-.172a2.789,2.789,0,0,0,.122-.76,9.337,9.337,0,0,0-.125-1.234c-.018-.141-.04-.284-.058-.427a1.164,1.164,0,0,0-.156-.443.685.685,0,0,1-.055-.151.649.649,0,0,0-.028-.081,3.377,3.377,0,0,0-.593-.833l-.116-.128c-.156-.185-.333-.362-.5-.534-.1-.1-.2-.2-.306-.3a1.237,1.237,0,0,1-.235-.3l-.061-.125a4.423,4.423,0,0,1-.306-.739,2.545,2.545,0,0,1-.061-.659v-.122c0-.214.168-1.445.193-1.625a1.11,1.11,0,0,0,0-.174,1.032,1.032,0,0,1,.015-.26c.034-.167.083-.331.128-.495.024-.081.049-.164.07-.245V8.028H8.971a1.224,1.224,0,0,1-.245-.044l-.33-.06.113-.167.037-.062a.616.616,0,0,1,.116-.154c.147-.135.306-.26.462-.391l.208-.161a3.769,3.769,0,0,0,.364-.3,5.016,5.016,0,0,0,.428-.443,4.174,4.174,0,0,1,.33-.349c.348-.349.718-.719,1.1-1.073a4.135,4.135,0,0,1,.825-.573,4.443,4.443,0,0,0-.459.294,6.247,6.247,0,0,0-.783.651c-.257.237-.5.482-.746.726l-.306.292a2.661,2.661,0,0,0-.306.323,2.655,2.655,0,0,1-.672.614C9,7.228,8.9,7.3,8.8,7.384a3.3,3.3,0,0,0-.358.354.346.346,0,0,1-.364.174l.2.208.031-.042c.018-.034.095-.107.306-.055s.211.146.2.2a1.828,1.828,0,0,1-.076.276,1.323,1.323,0,0,0-.046.141l-.046.146a1.422,1.422,0,0,0-.067.276,1.91,1.91,0,0,0,0,.229,1.314,1.314,0,0,1-.034.443A4,4,0,0,0,8.4,10.868v.24a1.246,1.246,0,0,0,.11.661,1.993,1.993,0,0,1,.079.2,1.309,1.309,0,0,0,.064.154l.061.138a2.316,2.316,0,0,0,.217.4,1.4,1.4,0,0,0,.229.232c.061.055.122.107.177.164a2.41,2.41,0,0,1,.174.2l.125.151.269.286c.138.143.272.286.4.432a2.754,2.754,0,0,1,.562,1.177,4.352,4.352,0,0,1,.089.544,1.486,1.486,0,0,0,.034.26,3.5,3.5,0,0,1,.031,1.133,4.454,4.454,0,0,1-.364,1.213c-.1.211-.2.422-.306.635A5.41,5.41,0,0,1,9.7,20.25a3.907,3.907,0,0,1-.957.893,2.7,2.7,0,0,0-.575.555.9.9,0,0,0-.095.747v.073c.046.325.113.672.211,1.094a.339.339,0,0,1-.18.391.634.634,0,0,1-.119.065,1.3,1.3,0,0,0-.128.049,1.034,1.034,0,0,1-.4.107,5.108,5.108,0,0,1-.642-.076c-.107-.018-.211-.034-.306-.047L6.3,24.075c-.281-.036-.572-.076-.856-.091s-.532-.016-.792-.016H3.732v-.284a2.148,2.148,0,0,0,0-.281,2.636,2.636,0,0,0-.049-.383,2.02,2.02,0,0,0-.031-.237c-.021-.172-.04-.341-.058-.521v-.078a2.872,2.872,0,0,0-.507-1.167l-.034-.057a1.913,1.913,0,0,0-.434-.49,6.531,6.531,0,0,1-.562-.521L2,19.9a6.1,6.1,0,0,1-.459-.521,4.433,4.433,0,0,1-.633-1.268L.88,18.021a7.1,7.1,0,0,1-.235-.909v-.047A9.243,9.243,0,0,1,.489,16.1a3.526,3.526,0,0,1,.018-.7,2.62,2.62,0,0,1,.1-.607,5.453,5.453,0,0,1,.345-.745l.037-.065a7.726,7.726,0,0,1,.535-.906A10.55,10.55,0,0,0,2.3,11.868a3.638,3.638,0,0,0,.41-1.4c0-.151.015-.3.018-.456v-.26a1.947,1.947,0,0,1,.049-.312,2.692,2.692,0,0,0,.064-.88V8.517a2.594,2.594,0,0,0-.079-.26H2.7a3.639,3.639,0,0,1-.031,1.252.666.666,0,0,0,0,.081v.341a6.1,6.1,0,0,1-.046.7,3.343,3.343,0,0,1-.373,1.177c-.024.047-.046.094-.067.141a1.211,1.211,0,0,1-.122.24c-.086.13-.177.26-.272.383l-.147.2-.141.193c-.128.172-.257.346-.37.521s-.2.338-.306.521l-.1.193A2.692,2.692,0,0,0,.36,15.352l-.015.208a2.667,2.667,0,0,0,.024.833c.04.172.076.341.11.521.052.247.1.505.171.752a10.224,10.224,0,0,0,.388,1.073,3.759,3.759,0,0,0,.945,1.216c.138.128.278.26.416.375l.119.1a2.9,2.9,0,0,1,.611.857,2.526,2.526,0,0,1,.306.729c.092.521.134,1.065.171,1.5a1.365,1.365,0,0,1-.028.336c0,.057-.018.115-.024.174a.078.078,0,0,0,0,.044,1.01,1.01,0,0,0,.156,0,2.666,2.666,0,0,1,.468-.068Zm.844-.31h.134c.306.016.6.055.883.091l.211.026.333.049a4.85,4.85,0,0,0,.611.07,1.421,1.421,0,0,0,.235-.073c.052-.023.1-.044.153-.062l.037-.021c.073-.049.079-.068.067-.12-.1-.427-.168-.781-.217-1.114v-.073a1.1,1.1,0,0,1,.153-.943,2.912,2.912,0,0,1,.617-.607,3.625,3.625,0,0,0,.883-.825,5.13,5.13,0,0,0,.611-1.091c.1-.232.2-.448.306-.661a4.213,4.213,0,0,0,.339-1.148,3.274,3.274,0,0,0-.031-1.042,2.2,2.2,0,0,0-.034-.26,3.954,3.954,0,0,0-.083-.521,2.492,2.492,0,0,0-.5-1.07c-.125-.143-.26-.284-.391-.422l-.275-.292c-.049-.055-.092-.109-.138-.164s-.1-.122-.153-.18-.107-.1-.162-.148a1.617,1.617,0,0,1-.275-.279,2.488,2.488,0,0,1-.241-.448l-.061-.133c-.028-.06-.049-.117-.07-.177a1.508,1.508,0,0,0-.07-.172,1.531,1.531,0,0,1-.134-.781v-.234A4.341,4.341,0,0,1,8.25,9.655a1.073,1.073,0,0,0,.034-.372c0-.086,0-.172,0-.26A1.9,1.9,0,0,1,8.36,8.7a1.1,1.1,0,0,0,.04-.133.385.385,0,0,1,.043-.128c-.269.359-.633.862-.666.919l-.046.073c-.086.143-.171.286-.254.43L7.449,9.9a.925.925,0,0,0-.1.221,3.217,3.217,0,0,0-.058.336,1.194,1.194,0,0,1-.031.206c-.021.125-.049.245-.079.367s-.076.292-.116.435l-.1.391q-.061.214-.11.43c-.031.122-.058.26-.086.372s-.061.284-.1.427q-.1.414-.211.828-.064.214-.138.43l-.5,1.562c-.055.167-.11.336-.159.505a.8.8,0,0,0-.021.122.251.251,0,0,1-.018.115l-.052.26c-.028.122-.052.245-.076.37a1.337,1.337,0,0,0-.024.245,2.373,2.373,0,0,1-.119.648c-.031.107-.061.214-.083.32s-.037.2-.052.3a1.507,1.507,0,0,1-.043.284l-.028.146a4.206,4.206,0,0,1-.116.521,2.949,2.949,0,0,0-.073.987v.315a3.408,3.408,0,0,0,.018.437,7.462,7.462,0,0,0,.171.851,1.629,1.629,0,0,0,.11.307c.031.073.061.146.089.229s.076.24.11.359l.031.1a.275.275,0,0,1-.138.365ZM8.112,8.2l-.122.18c-.046.06-.122.159-.214.26-.174.219-.437.547-.483.638a1.571,1.571,0,0,1-.128.2,2.124,2.124,0,0,0-.385.781,4.149,4.149,0,0,1-.058.5v.06a2.471,2.471,0,0,1-.07.26c-.055.2-.128.456-.159.588-.052.232-.1.463-.15.7l-.107.383c-.028.133-.052.26-.089.4-.067.237-.138.474-.214.708l-.089.292c-.067.214-.131.424-.2.633-.034.1-.07.19-.107.284s-.1.24-.134.359c-.113.375-.2.706-.272,1.018-.058.26-.1.508-.141.763l-.028.172c-.015.094-.031.193-.043.289-.018.135-.04.26-.064.411s-.055.245-.083.365-.052.2-.073.3c-.089.443-.171.89-.254,1.336a1.091,1.091,0,0,0-.028.26,1.665,1.665,0,0,0,.021.325,2.357,2.357,0,0,1,.024.367,4.613,4.613,0,0,0,.138,1.12c.083.26.174.521.272.781.058.156.116.315.174.479.024.07.061.06.076.057l.055-.018a.326.326,0,0,1-.018-.062l-.031-.1c-.034-.117-.07-.234-.107-.352-.028-.073-.055-.143-.086-.208a2.5,2.5,0,0,1-.116-.323,7.864,7.864,0,0,1-.174-.877,4.094,4.094,0,0,1-.018-.471v-.318a3.09,3.09,0,0,1,.083-1.065,4.22,4.22,0,0,0,.11-.5l.024-.148q.028-.135.046-.26c.018-.1.034-.206.052-.31s.058-.227.089-.338a2.221,2.221,0,0,0,.11-.583,1.725,1.725,0,0,1,.031-.292c.024-.122.049-.247.076-.372l.052-.26a.565.565,0,0,0,.015-.1.945.945,0,0,1,.028-.161c.052-.172.107-.344.162-.521l.507-1.562c.046-.141.092-.279.131-.419.076-.26.144-.547.211-.82.034-.141.064-.281.095-.422s.058-.26.086-.375.073-.292.113-.435l.1-.393c.04-.143.076-.289.113-.432s.058-.232.079-.346l.028-.2c.018-.12.034-.24.064-.359a1.11,1.11,0,0,1,.131-.289l.024-.044c.083-.146.171-.289.257-.435l.046-.073c.049-.081.48-.672.737-1.015ZM3.833,7.6c.712.031,2.846.135,3.524.221L7.95,7.9V7.877c-.245-.042-.5-.081-.746-.112-.092,0-.183-.016-.272-.021l-.254-.018-.4-.029c-.245-.016-.5-.031-.611-.047s-.52-.031-.917-.044q-.668,0-1.333-.065a6.288,6.288,0,0,0-.764-.1c-.028.026.015.143.052.172A6.813,6.813,0,0,0,3.817,7.6ZM13.1,4.01a1.125,1.125,0,0,1,.327.049.467.467,0,0,0,.232,0,.065.065,0,0,0,.049-.029h-.076a1.932,1.932,0,0,0-.682,0A.933.933,0,0,1,13.1,4.01ZM13.733,22.4a.248.248,0,0,1-.183-.062.312.312,0,0,1-.086-.3.831.831,0,0,1,.685-.565,3.726,3.726,0,0,1,.428-.055h0c.073,0,.306,0,.361.13.046.19-.214.292-.5.4h-.031a.143.143,0,0,1,0,.094c0,.094-.116.154-.306.26l-.037.021a.646.646,0,0,1-.223.062.86.86,0,0,1-.113.016Zm.376-.622a.5.5,0,0,0-.327.349h.024a.349.349,0,0,0,.116-.026l.04-.021.1-.06a.146.146,0,0,1-.015-.169.1.1,0,0,1,.058-.073ZM16.86,4.419a2.54,2.54,0,0,1-.816-.133c-.147-.052-.306-.094-.452-.138l-.312-.094c-.119-.036-.235-.083-.352-.128a.368.368,0,0,1-.15-.107.247.247,0,0,0-.055-.055h-.052a1.584,1.584,0,0,1-.712-.055.47.47,0,0,1-.287-.26A1.232,1.232,0,0,1,13.7,2.333a4.272,4.272,0,0,1,.407-.69A2.613,2.613,0,0,1,15.662.6c.2-.047.413-.076.611-.107l.348-.052h.046a12.782,12.782,0,0,0,1.479-.3A4.3,4.3,0,0,1,19.03-.01,1.353,1.353,0,0,1,20.122.4h0a1.052,1.052,0,0,1,.147.521V.94a.492.492,0,0,1,.422.159,1.179,1.179,0,0,1,.431.854,1.439,1.439,0,0,1-.1.4c-.021.057-.043.112-.058.167a1.52,1.52,0,0,1-.941.9l-.306.133q-.3.144-.611.26c-.584.208-1.064.362-1.51.482a2.88,2.88,0,0,1-.718.12Zm-2.155-.93a.387.387,0,0,1,.33.167,3.059,3.059,0,0,0,.348.135l.306.091c.159.044.306.091.471.143a2.3,2.3,0,0,0,1.354.021A15.342,15.342,0,0,0,19,3.57q.29-.109.565-.242l.306-.138a1.2,1.2,0,0,0,.77-.721c.018-.06.043-.122.064-.182a1.2,1.2,0,0,0,.089-.331.929.929,0,0,0-.345-.664.14.14,0,0,0-.171-.044l.1.216c.018.039.043.081.064.12a.627.627,0,0,1,.116.521l-.076.229h0c-.046.125-.095.24-.138.333a.941.941,0,0,1-.41.409,6.786,6.786,0,0,1-1.357.588l-.339.12q-.413.14-.841.245a1.952,1.952,0,0,1-.917-.021L15.693,3.8l-.226-.062c-.174-.044-.211-.13-.211-.193,0-.141.165-.154.306-.164a1.169,1.169,0,0,0,.15-.016c.211-.044.419-.1.611-.151l.327-.086c.165-.047.33-.091.5-.13.284-.07.611-.148.969-.214a4.131,4.131,0,0,0,1.241-.4,1.428,1.428,0,0,0,.575-.476,1.021,1.021,0,0,0,.092-.276.365.365,0,0,1,.037-.156l.049-.161-.089.042-.04-.19a1.989,1.989,0,0,0-.028-.208.909.909,0,0,0-.089-.385.993.993,0,0,0-.8-.3,3.925,3.925,0,0,0-.807.135c-.177.052-.358.1-.541.138L17.884.51a.75.75,0,0,0,.147-.036A1.73,1.73,0,0,1,18.2.43L18.321.4a5.791,5.791,0,0,1,.611-.112,1.136,1.136,0,0,1,.407.057.339.339,0,0,1,.278.31,1.538,1.538,0,0,0,.055.31c.021.1.034.156.046.234a.938.938,0,0,1-.352,1.042,2.637,2.637,0,0,1-1.094.456c-.376.076-.746.164-1.116.26l-.379.091c-.162.036-.324.081-.486.122a7.4,7.4,0,0,1-1.32.26,3.2,3.2,0,0,0-.465.057.315.315,0,0,1-.223-.034.24.24,0,0,1-.113-.167,2.46,2.46,0,0,1,.024-.75h0l.116-.224a3.445,3.445,0,0,1,.449-.726A2.189,2.189,0,0,1,15.806.88h-.067a2.319,2.319,0,0,0-1.36.932,3.809,3.809,0,0,0-.361.617,1,1,0,0,0-.034.945.148.148,0,0,0,.1.091A1.125,1.125,0,0,0,14.6,3.5Zm1.272.1.572.148a1.426,1.426,0,0,0,.734.021,8.058,8.058,0,0,0,.807-.232l.342-.122a6.4,6.4,0,0,0,1.3-.552.676.676,0,0,0,.306-.279,5.137,5.137,0,0,0,.208-.539V2.021h0v.029a1.678,1.678,0,0,1-.691.588,4.549,4.549,0,0,1-1.351.437c-.336.065-.669.141-.951.208-.165.039-.327.083-.489.128l-.33.089ZM14.54,2.549h0l-.024.049a2.05,2.05,0,0,0-.028.614c.153-.023.306-.044.452-.055a7.119,7.119,0,0,0,1.253-.26c.162-.042.327-.086.492-.125l.379-.091c.373-.091.749-.18,1.128-.26a2.266,2.266,0,0,0,.954-.4.7.7,0,0,0,.245-.8.925.925,0,0,0-.046-.221,3.037,3.037,0,0,1-.058-.336.156.156,0,0,0,0-.062h-.037a.754.754,0,0,0-.263-.044Q18.7.6,18.41.667L18.285.7l-.131.036a1.88,1.88,0,0,1-.2.055L17.5.867c-.425.078-.862.159-1.3.211a1.752,1.752,0,0,0-1.168.669,3.358,3.358,0,0,0-.416.672Z" transform="translate(0.005 0.014)"/></svg>