<svg xmlns="http://www.w3.org/2000/svg" width="29.79" height="25" viewBox="0 0 29.79 25"><path d="M29.78,18.658a2.785,2.785,0,0,1-.078.531c0,.031-.05.075-.043.094.085.169,0,.326-.047.48a3.965,3.965,0,0,1-.233.68c-.031.09-.05.189-.089.279a1.285,1.285,0,0,1-.163.346,8.066,8.066,0,0,1-.8.924c-.26.232-.5.487-.776.712-.19.157-.411.275-.613.421a4.864,4.864,0,0,1-1.068.582,1.481,1.481,0,0,0-.345.189.994.994,0,0,1-.345.134.3.3,0,0,0-.237.252,1,1,0,0,1-.109,0,.992.992,0,0,0-.683.177.385.385,0,0,1-.33.083,1.014,1.014,0,0,0-.54.11,1.509,1.509,0,0,1-.454.094,5.854,5.854,0,0,0-.582.063l-.45.039c-.07,0-.144.063-.2.047a1.177,1.177,0,0,0-.617.039.261.261,0,0,1-.1-.02c-.027,0-.058-.035-.078-.028-.179.063-.388,0-.547.083a.2.2,0,0,1-.082,0c-.322,0-.644.047-.963.028s-.656,0-.982-.028c-.039,0-.1,0-.113-.031-.054-.09-.132-.075-.21-.079-.151,0-.307.051-.454-.055-.035-.024-.109,0-.171,0s-.035-.094-.054-.145c-.21-.028-.45.079-.609-.165l-.14.086a.5.5,0,0,0-.493-.149l-.07-.134H15.8a.313.313,0,0,1-.326-.157.388.388,0,0,0-.318-.216.267.267,0,0,1-.144-.086.3.3,0,0,0-.245-.106c-.039,0-.085-.039-.124-.067a1.483,1.483,0,0,1-.3-.244c-.054,0-.124.106-.245,0a.366.366,0,0,0,0-.114c0-.047,0-.118-.043-.134-.179-.09-.245-.295-.388-.393a.2.2,0,0,1-.07-.083,1.737,1.737,0,0,0-.314-.5.3.3,0,0,1-.047-.11c-.07-.059-.206.028-.225-.114a.3.3,0,0,0-.089.024c-.14.094-.21.079-.3-.063a.151.151,0,0,0-.12-.071l.039.157h-.664l-.128-.142c-.082.185-.241.122-.369.149a.259.259,0,0,1-.334-.142c-.194.126-.233.13-.388.02-.078.083-.136.138-.233,0s-.214-.126-.318-.193a2.116,2.116,0,0,1-.221-.181.518.518,0,0,1-.089.079.958.958,0,0,1-.148.079l.047-.153s0-.024-.031-.028l-.19-.071c-.039,0-.082-.039-.116-.031a.209.209,0,0,1-.182-.063.169.169,0,0,0-.128-.039c-.186.024-.186.028-.252-.169l-.085.067-.291-.059a.8.8,0,0,1-.167-.039.442.442,0,0,0-.322-.055h-.1c-.054-.118-.159-.063-.241-.09a3.476,3.476,0,0,0-.831-.118.153.153,0,0,1-.085,0,.714.714,0,0,0-.493-.059.61.61,0,0,1-.388-.059c-.023,0-.058-.035-.082-.028-.311.118-.617-.063-.932,0a.361.361,0,0,1-.291-.071c-.093-.071-.256-.043-.388-.059l-.2-.031a1.229,1.229,0,0,0-.163-.039c-.093,0-.2.051-.256-.083-.186.059-.307-.212-.509-.106a.545.545,0,0,1-.14-.075c-.047-.028-.186,0-.252-.094a1.66,1.66,0,0,0-.179-.2L2.242,20l-.578-.393-.085.024a.134.134,0,0,1-.125,0,.138.138,0,0,1-.073-.1.392.392,0,0,0-.182-.224s-.035-.055-.054-.055c-.233,0-.33-.181-.446-.342a1.957,1.957,0,0,0-.171-.189A.739.739,0,0,1,.3,18.387c0-.079-.124-.138-.155-.22A.7.7,0,0,1,.06,17.8c.05-.193-.066-.338-.07-.511V17.16c.07-.24.14-.48.217-.715a2.554,2.554,0,0,1,.446-.833,2.262,2.262,0,0,1,.613-.558c.2-.11.388-.259.582-.362a1.7,1.7,0,0,1,.66-.263,2.15,2.15,0,0,0,.365-.11c.248-.063.5-.122.745-.165a2.971,2.971,0,0,1,.419,0,4.221,4.221,0,0,0,.555-.024,1.963,1.963,0,0,0,.5-.043.6.6,0,0,1,.353.039.717.717,0,0,0,.388,0,.886.886,0,0,1,.338,0,.9.9,0,0,0,.353-.024.445.445,0,0,1,.311,0,.307.307,0,0,0,.307,0,.223.223,0,0,1,.124-.024H8.433c.058,0,.113-.02.171-.024A2.846,2.846,0,0,0,9.047,14l.458-.079a1.534,1.534,0,0,1,.233,0,.572.572,0,0,0,.33-.059.5.5,0,0,1,.2-.055,3.9,3.9,0,0,0,.571-.047c.182-.028.256-.071.388-.1a.587.587,0,0,1,.167,0h.268c.085,0,.21-.11.357-.055s.225-.043.349-.075a.424.424,0,0,0-.109-.283,2.653,2.653,0,0,1-.361-.68c-.113-.236-.082-.519-.241-.739.031-.228-.039-.452-.023-.676s0-.334,0-.5a.794.794,0,0,1,.093-.393,1.79,1.79,0,0,0,.136-.452,4.961,4.961,0,0,1,.365-.991.309.309,0,0,0,.05-.118,1.842,1.842,0,0,1,.334-.712c.031-.055.054-.114.082-.169s0-.039,0-.039c.19-.028.159-.24.272-.326l.361-.267c.07-.047.132-.1.206-.149s.2-.106.291-.169.2-.149.3-.224a1.374,1.374,0,0,1,.648-.22.769.769,0,0,0,.163-.051.834.834,0,0,1,.163-.043,8.862,8.862,0,0,1,.908-.083,6.685,6.685,0,0,1,.741.083,1.06,1.06,0,0,1,.272.024.188.188,0,0,1,.082,0,1.535,1.535,0,0,0,.609.075.432.432,0,0,1,.291.114,2.212,2.212,0,0,0,.835.46c.221.071.431.185.648.271a1.066,1.066,0,0,0,1.223-.295c.116-.11.085-.283.093-.429a.591.591,0,0,0-.093-.307,5.2,5.2,0,0,1-.279-.7,2.081,2.081,0,0,1-.085-.908.616.616,0,0,1,.047-.185c0-.035.039-.071.031-.1a1.48,1.48,0,0,1,.07-.676c.054-.267.093-.539.144-.786a.453.453,0,0,1,.027-.126c.085-.193.171-.393.264-.582A.588.588,0,0,1,21.077,2c.085-.063.179-.1.233-.208s.12-.067.182-.094a.263.263,0,0,0,.171-.263A2.785,2.785,0,0,0,21.527.3,1.064,1.064,0,0,1,21.5.193c0-.055,0-.126.058-.138s.093.035.1.1a1.618,1.618,0,0,0,.089.263.14.14,0,0,0,.163.106c.085,0,.113-.079.124-.153a.35.35,0,0,0,0-.11c0-.185.023-.232.245-.263a1.75,1.75,0,0,1-.237.814c0,.024-.043.055-.039.075.054.177-.023.35,0,.527,0,.11.074.181.159.165.241-.039.365.138.5.267s.167.259.272.362.1.3.2.432a1.5,1.5,0,0,1,.2.448,4.353,4.353,0,0,0,.252.59,2.819,2.819,0,0,1,.12.3,2.637,2.637,0,0,1,.132.515,3.255,3.255,0,0,1-.078,1.01c-.054.248-.116.491-.175.735a.849.849,0,0,1-.035.106,6.638,6.638,0,0,0-.307.9,1.757,1.757,0,0,0-.109.252.365.365,0,0,1-.039.2c-.093.13-.159.283-.241.425a.654.654,0,0,1-.1.11,2.346,2.346,0,0,1-.19.2c-.155.145-.318.283-.477.421a.856.856,0,0,1-.342.208c-.058,0-.1.075-.155.106a2.39,2.39,0,0,1-.225.11c-.05.028-.1.039-.151.071a1.161,1.161,0,0,1-.5.295c-.14.181-.338.106-.512.145a3.113,3.113,0,0,1-.807.039.5.5,0,0,1-.435-.114l-.182.086-.093-.181c-.175.173-.264,0-.388-.083h0a1.056,1.056,0,0,0-.155-.09,2.333,2.333,0,0,0-.229-.067l-.089.075a.578.578,0,0,0-.5-.2,3.784,3.784,0,0,1-.7,0,.748.748,0,0,1-.217-.1l-.136.094a.15.15,0,0,1-.058,0,.385.385,0,0,0-.439.071,1.966,1.966,0,0,0-.52.747.7.7,0,0,0-.074.373c0,.118,0,.208-.062.267.128.259.241.5.365.731a.715.715,0,0,0,.151.2,6.063,6.063,0,0,0,.753.637,2.238,2.238,0,0,0,.687.37.542.542,0,0,1,.113.063,1.781,1.781,0,0,0,.734.228.257.257,0,0,1,.12.028.538.538,0,0,0,.45.059.173.173,0,0,1,.109,0,1.944,1.944,0,0,0,.877,0c.272-.028.551,0,.827,0H20.8a.169.169,0,0,0,.062,0,2.9,2.9,0,0,1,.99-.114l.745-.047c.082,0,.163.024.248.031s.078.028.1,0c.113-.063.221,0,.334,0l.47.043a2.062,2.062,0,0,1,.776.169.238.238,0,0,0,.1.02,1.709,1.709,0,0,1,.7.153c.136.039.276.063.415.1a7.7,7.7,0,0,1,.815.283c.311.122.586.307.9.417a.776.776,0,0,1,.264.181c.287.267.551.558.811.853a4.373,4.373,0,0,1,.477.66,2.144,2.144,0,0,1,.124.271.176.176,0,0,0,.054.118,1.065,1.065,0,0,1,.206.535c.035.138.078.275.113.393a4.376,4.376,0,0,1,.113.869.807.807,0,0,0,.027.256,2.05,2.05,0,0,1,.1.444Zm-28.567.633Zm14.752-2.9a1,1,0,0,0,.454-.35c-.2.067-.194.039-.415,0a6.445,6.445,0,0,0-.776-.035c-.085,0-.171.031-.252.031H13.457a2.132,2.132,0,0,1-.311.031c-.093,0-.19.126-.28,0h-.039c-.116.106-.256.055-.388.059a.944.944,0,0,0-.52.063.23.23,0,0,1-.1,0,1.074,1.074,0,0,0-.578.028h-.082L9.6,16.2H8.678a1.03,1.03,0,0,1-.217-.051c-.047,0-.113-.055-.128-.039-.109.1-.241,0-.342.063a.932.932,0,0,1-.357.031,1.151,1.151,0,0,0-.388.039c-.116.047-.272-.059-.388.063H6.8c-.128-.161-.314.063-.446-.067-.109.086-.2,0-.291-.055l-.113.122c-.163-.086-.357.1-.462-.059a1.344,1.344,0,0,1-.26.055,4.732,4.732,0,0,1-.578,0,4.391,4.391,0,0,0-.454.024.472.472,0,0,0-.264.035c-.035.02-.1-.031-.171-.051a.185.185,0,0,1-.233.059.289.289,0,0,0-.353.1.438.438,0,0,0-.474.055,1.065,1.065,0,0,0-.388.362,1.868,1.868,0,0,0-.113.511l-.3-.122v.468c.144.039.2.126.128.267.14.051.252-.126.357-.02a1.994,1.994,0,0,1,.214.354h.035a.262.262,0,0,1,.3.1.734.734,0,0,0,.318.153,5.64,5.64,0,0,0,.6.173,2.689,2.689,0,0,0,.594.142,1.754,1.754,0,0,1,.543.106,4.115,4.115,0,0,0,.683.134.417.417,0,0,1,.318.09.257.257,0,0,0,.159,0c.039,0,.1-.047.12-.031.19.13.431.047.613.13s.458.079.668.189a.593.593,0,0,0,.256.09c.237,0,.411.165.629.22a4.412,4.412,0,0,1,.811.44,1.961,1.961,0,0,1,.571.322.824.824,0,0,0,.256.145c.21.09.419.169.629.256a2.208,2.208,0,0,1,.314.13,1.082,1.082,0,0,0,.388.134,1.921,1.921,0,0,1,.388.1.384.384,0,0,0,.245.028c.21-.055.423-.1.633-.161a1.451,1.451,0,0,0,.307-.142c.035-.024.07-.1.058-.126-.074-.11-.039-.224-.043-.346a2.178,2.178,0,0,1,0-.55.971.971,0,0,0,.039-.315c0-.13.074-.244.05-.35a.868.868,0,0,1,.019-.318,2.589,2.589,0,0,1,.05-.393c.019-.126,0-.318.148-.436a.241.241,0,0,0,.035-.079,1.933,1.933,0,0,1,.757-.826c.1-.067.217-.13.322-.2a4.728,4.728,0,0,1,.458-.248c.357-.181.73-.338,1.095-.507Zm-3.377,5.319c.082.031.155.145.26.035C12.762,21.748,12.688,21.622,12.587,21.713Zm.5,0a.845.845,0,0,0-.043-.13.455.455,0,0,0-.14.059.293.293,0,0,0-.054.122l.128-.055a1.547,1.547,0,0,0,.035.263c.109-.079.074-.185.074-.279Zm12.081-3.07a.163.163,0,0,0,0-.043V18.17a.175.175,0,0,0-.027-.1.448.448,0,0,1-.1-.271c0-.142-.128-.271-.214-.252a.189.189,0,0,1-.245-.161l-.151.079-.12-.165c-.1,0-.19.024-.276.024a.2.2,0,0,1-.136-.043.385.385,0,0,0-.388-.094.594.594,0,0,1-.167,0,1.078,1.078,0,0,0-.547-.039h-.167a2.1,2.1,0,0,0-.225,0h-.144c-.116,0-.252-.067-.349-.028-.248.1-.5-.079-.741.039-.023,0-.078-.047-.116-.071a1.377,1.377,0,0,1-.179.079.334.334,0,0,1-.186,0c-.035,0-.05-.09-.078-.142l-.652.59a.389.389,0,0,1-.116.094.652.652,0,0,0-.361.366.6.6,0,0,0-.443.2,3.191,3.191,0,0,1-.625.354.924.924,0,0,0-.338.244.248.248,0,0,1-.214.122.514.514,0,0,0-.516.248l-.1.13c-.093-.063-.148-.236-.287-.118a.505.505,0,0,0,.066.165h-.194a.462.462,0,0,0-.229.273.469.469,0,0,0,.031.356s0,0,0,.024a.343.343,0,0,0,.082.165,3.069,3.069,0,0,0,.342.252,1.161,1.161,0,0,1,.182.106.485.485,0,0,0,.338.11h.594a.357.357,0,0,1,.163.031.361.361,0,0,0,.307.059,2.3,2.3,0,0,1,.761-.016,1.152,1.152,0,0,0,.245-.059,1.016,1.016,0,0,1,.186-.028h.551a.84.84,0,0,1,.462,0,.192.192,0,0,0,.1,0,5.129,5.129,0,0,1,.947-.126c.241,0,.474-.11.722-.126.019,0,.035-.024.054-.028a3.458,3.458,0,0,1,.509-.134,2.839,2.839,0,0,0,.776-.252,4.694,4.694,0,0,0,.722-.491,1.4,1.4,0,0,0,.516-.9Z" transform="translate(0.01)"/></svg>