<svg xmlns="http://www.w3.org/2000/svg" width="23.428" height="25" viewBox="0 0 23.428 25"><path d="M11.714,0c6.467.009,11.708,6.2,11.714,13.847C23.422,20,19.2,24.993,13.99,25c-1.86,0-3.368-1.782-3.368-3.98V17.83h-2.7c-1.86,0-3.368-1.782-3.368-3.98,0-4.676,3.208-8.467,7.165-8.467s7.165,3.791,7.165,8.467c-.006,3.189-2.2,5.771-4.894,5.771H12.811v1.4A1.3,1.3,0,0,0,13.99,22.41c4-.005,7.244-3.838,7.249-8.567,0-6.217-4.263-11.256-9.524-11.256S2.19,7.627,2.19,13.843c0,3.741,2.567,6.773,5.732,6.776a.4.4,0,0,1,0,.8c-3.536,0-6.4-3.389-6.407-7.568,0-6.656,4.566-12.052,10.2-12.052s10.2,5.4,10.2,12.052c0,5.171-3.547,9.364-7.923,9.369a2.048,2.048,0,0,1-1.855-2.192v-2.2H13.99c2.325,0,4.21-2.227,4.21-4.975,0-4.237-2.9-7.671-6.49-7.671S5.219,9.613,5.219,13.85a2.976,2.976,0,0,0,2.7,3.187h2.7V13.843a1.2,1.2,0,0,1,1.1-1.231,1.2,1.2,0,0,1,1.1,1.231v1.413h1.179a1.3,1.3,0,0,0,1.182-1.393,4.3,4.3,0,0,0-1.7-3.635,3.006,3.006,0,0,0-3.514,0,4.3,4.3,0,0,0-1.7,3.635.341.341,0,1,1-.674,0A5.132,5.132,0,0,1,9.613,9.529a3.592,3.592,0,0,1,4.193,0,5.132,5.132,0,0,1,2.033,4.334,2.044,2.044,0,0,1-1.855,2.189H12.135V13.863a.427.427,0,1,0-.842,0V17.05h2.7a2.979,2.979,0,0,0,2.7-3.187,6.175,6.175,0,0,0-2.451-5.206,4.323,4.323,0,0,0-5.041,0,6.175,6.175,0,0,0-2.451,5.206,1.3,1.3,0,0,0,1.179,1.393H9.1V13.843a2.88,2.88,0,0,1,2.613-3.088,2.88,2.88,0,0,1,2.613,3.088.341.341,0,1,1-.674,0,2.138,2.138,0,0,0-1.939-2.292,2.138,2.138,0,0,0-1.939,2.292v2.192H7.923a2.045,2.045,0,0,1-1.855-2.192c0-3.685,2.528-6.673,5.647-6.673s5.647,2.988,5.647,6.673c0,2.2-1.508,3.98-3.368,3.98h-2.7V21.01a3.509,3.509,0,0,0,.787,2.261,2.51,2.51,0,0,0,1.91.939c4.841-.007,8.763-4.646,8.765-10.367C22.755,6.637,17.812.8,11.714.8S.674,6.637.674,13.843c0,4.729,3.247,8.561,7.249,8.567A1.3,1.3,0,0,0,9.1,21.017v-1.4H7.923c-2.7,0-4.887-2.587-4.889-5.777,0-5.667,3.886-10.261,8.682-10.261S20.4,8.176,20.4,13.843c0,4.181-2.871,7.569-6.409,7.572a.4.4,0,0,1,0-.8c3.164-.005,5.728-3.036,5.731-6.776,0-5.226-3.585-9.462-8.007-9.462S3.707,8.617,3.707,13.843c0,2.748,1.885,4.975,4.21,4.975H9.772V21.01a2.052,2.052,0,0,1-1.849,2.205C3.546,23.21,0,19.016,0,13.843.008,6.2,5.248.009,11.714,0Z"/></svg>