<svg xmlns="http://www.w3.org/2000/svg" width="24.128" height="25" viewBox="0 0 24.128 25"><path d="M2.671.963a1.745,1.745,0,0,0-.094.822c-.079.5-.132.326-.113.818a3.772,3.772,0,0,0-.188.8c-.087.746-.147.326-.166.84-.23.536-.019.391-.23.822-.064.55.053.391-.166.865.038.5-.064.076-.181.891-.038.579-.2.362-.173.905C.484,10.151.608,17.192.653,17.394c-.2,1.868.312,2.244.2,3.519.075,1.108.181.782.166,1.281a.611.611,0,0,1,.045.416,2.708,2.708,0,0,1,.113.807c.034.677.09.228.162.76.03.239.056.159-.113.362-.237.04-.154.062-.376-.08-.346-.514-.105-.25-.237-.782s.128-.062-.136-.9a.983.983,0,0,1-.023-.467c-.192-1.115,0-.84-.215-1.339C.183,20.464.341,20.2.149,19.7a.7.7,0,0,0-.026-.442C0,18.85.111,19.313,0,18.368c.079-1.039,0-1.187.049-1.748-.132-.463.045-.329-.011-.825s.034-.033-.023-.825c-.06-.891.09-.565.041-1.694a5.222,5.222,0,0,0,0-.847A1.213,1.213,0,0,0,.092,12a.841.841,0,0,0,.041-.42c.075-.51,0,0,.087-.84C.439,8.934.48,9.575.454,9a.7.7,0,0,0,.124-.431,1.4,1.4,0,0,0,.056-.445c.06-.243.685-2.824.7-3.28A.965.965,0,0,0,1.4,4.456c.113-.232.09-.141.087-.387.23-.431,0-.3.245-.753.034-.539.049,0,.143-.854a1.2,1.2,0,0,1,.049-.427A1.555,1.555,0,0,1,1.971,1.6c.064-.843,0-.127.147-.862.275-.065.173-.072.444,0ZM22.143,14.686c-.117-.253-.041-.2-.309-.25-.523.076-.478.043-.787.246-.55.123-.053.091-.806.228-.693.127-.331-.076-.825.083-.621,0-.425.141-.907.054-.553.109-.248.141-.858.159-.282.134-.068.138-.911-.04-.553-.116-.3-.21-.851-.387-.753-.688-1.86-1.086-2.086-2.3-.181-.576.151-.724.316-1.169.286-.362.158-.3.324-.789a3.468,3.468,0,0,0,.162-.825,15.979,15.979,0,0,0,.075-2.505.7.7,0,0,0-.03-.416.569.569,0,0,0,0-.416,3.458,3.458,0,0,0,.023-.836c-.124-.232-.049-.17-.3-.282-.282.083-.2,0-.312.282a.765.765,0,0,0,.053.431c-.041.51.083.7,0,1.3,0,1.238.109.822.03,1.3a.6.6,0,0,1-.026.431,2.409,2.409,0,0,1-.083.836c-.286,1.006.181-.062-.561,1.535-.09.235-.034.17-.237.3-.128.2-.117.134-.075.272-.09.264-.026-.069-.467.615a.751.751,0,0,1-.376.268c-.666.518-.67.286-1.129.662a7.13,7.13,0,0,0-1.227.485.888.888,0,0,0-.44.083c-.444.181.03,0-.866.167-.7,0-1.679.043-1.751.043-.459.163-.335,0-.851.058a.684.684,0,0,1-.4-.025c-1.284.054-.979-.362-1.638-.413-.248.159-.2.069-.218.362.12.174.079.224.727.434a6.061,6.061,0,0,0,2.681.17c.576-.091.452.062.907-.069a5.708,5.708,0,0,0,1.811-.21,18.329,18.329,0,0,0,1.717-.67c.09.724-.049.337.023.836a1.1,1.1,0,0,0,0,.431.527.527,0,0,0,.015.416c-.117.521.072.326-.056.862.079.478-.023-.022.019.858a1.156,1.156,0,0,1,0,.427,1.623,1.623,0,0,1,0,.427c.041.956-.09.409.026.9-.09.51.072.963-.068,1.752a2.79,2.79,0,0,0-.1.847,6.49,6.49,0,0,0-.132.807,1.853,1.853,0,0,0-.117.424,1,1,0,0,0-.162.405,3.457,3.457,0,0,0-.233.84c-.105.492-.215.431-.053.822.248.091.154.083.407,0,.064-.25.038-.156.113-.409a.6.6,0,0,1,.117-.395c.023-.264,0-.177.139-.391.049-.648-.132.594.463-1.625a.913.913,0,0,0,.015-.395c.162-.724-.03-.058.154-1.281.087-.561-.049-.362.045-.869a5.386,5.386,0,0,1-.034-.9c.075-.561-.117-.21,0-.9a3.523,3.523,0,0,1,0-.894,9.866,9.866,0,0,1,0-1.748.862.862,0,0,1-.041-.427c-.06-.532.075-.362,0-.862.049-.257.045-.2,0-.275.264-.109.177-.047.376-.257,1.216-.764.147-1.061,1.412.7a1.044,1.044,0,0,1,.286.3c.237.127.162.065.316.272a.663.663,0,0,1,.346.235c.433.279.237.268.708.46a1.552,1.552,0,0,0,.753.362,1.927,1.927,0,0,0,1.619.062c.531,0,.832-.159,1.653-.159.474-.163.215.069.873-.091a1.441,1.441,0,0,1,.429-.13.907.907,0,0,1,.414-.2c.753-.362.553-.065.753-.434ZM23.758,4.652c-.087-.543,0-.424-.188-.862a3.329,3.329,0,0,0-.169-.851c-.233-.724,0-.387-.211-.862-.023-.583-.154-.387-.132-.887C22.892.662,22.84.782,22.9.3a.882.882,0,0,0-.309-.3c-.282.1-.211.029-.309.308.154.5-.045.384.169.8.023.623.663,2.853.663,3.236.248.456.079.315.222.822-.049.5.038.322.1.84a35.6,35.6,0,0,1,.169,3.8.565.565,0,0,0,0,.416,3.278,3.278,0,0,0-.045.836,10.816,10.816,0,0,0,0,1.26,1.4,1.4,0,0,0-.041.42,13.579,13.579,0,0,0-.117,1.676.7.7,0,0,1-.056.424.6.6,0,0,1-.049.431,3.043,3.043,0,0,1-.117.858c-.177.825.049.384-.154.851-.117.514-.094.362-.188.847-.064.76-.113.322-.177.851s-.132.069-.2.847a.96.96,0,0,1-.151.424c-.23,1.126-.3.789-.324,1.318a5.16,5.16,0,0,0-.5,1.108.72.72,0,0,0-.23.362,11.887,11.887,0,0,1-.832,1.517c-.154.21-.12.116-.158.4.188.217.1.163.376.224a4.164,4.164,0,0,0,.286-.337.762.762,0,0,0,.245-.362c.207-.5.056,0,.376-.764A9.406,9.406,0,0,0,22.621,21c.29-.724.945-3.62.956-3.732.719-3.305.685-11.367.162-12.616Z" transform="translate(0.003)"/></svg>